<?xml version="1.0" encoding="utf-8"?>
<?xml-stylesheet type="text/xsl" href="rss1.xsl"?>
<rss version="2.0" xmlns:atom="http://www.w3.org/2005/Atom" xmlns:content="http://purl.org/rss/1.0/modules/content/" xmlns:dc="http://purl.org/dc/elements/1.1/" xmlns:media="http://search.yahoo.com/mrss/">
<channel>
 <title>Getty</title>
 <link>http://www.gettyimg.com/</link>
 <atom:link href="http://www.gettyimg.com/" rel="self" type="application/rss+xml" />

 
                <item>
                <title><![CDATA[【Albums (lossless)】FLAC - Request for  album to be uploaded]]></title>
                <link><![CDATA[https://sharemania.us/threads/request-for-album-to-be-uploaded.221184/]]></link>
                <description><![CDATA[<article>
<blockquote class="messageText SelectQuoteContainer ugc baseHtml">
<a href="https://www.qobuz.com/ie-en/album/still-rollin-shubh/tlz4w4ifekt8b" target="_blank" class="externalLink" rel="nofollow">https://www.qobuz.com/ie-en/album/still-rollin-shubh/tlz4w4ifekt8b</a>
<div class="messageTextEndMarker">&nbsp;</div>
</blockquote>
</article>]]></description>
                <author><![CDATA[Shivam]]></author>
                </item>

                
                <item>
                <title><![CDATA[【PRORES HD】Melanie Martinez - Mad Hatter [Master ProRes APCN 800p]]]></title>
                <link><![CDATA[https://sharemania.us/threads/melanie-martinez-mad-hatter-master-prores-apcn-800p.221183/]]></link>
                <description><![CDATA[<article>
<blockquote class="messageText SelectQuoteContainer ugc baseHtml">
<div style="text-align: center"><img src="https://i.ibb.co/PTLsBrD/Melanie-Martinez-Mad-Hatter-Master-Pro-Res-APCN-800p-mov.png" class="bbCodeImage LbImage" alt="[​IMG]" data-url="https://i.ibb.co/PTLsBrD/Melanie-Martinez-Mad-Hatter-Master-Pro-Res-APCN-800p-mov.png" style=""> <br>
<br>
<div class="ToggleTriggerAnchor bbCodeSpoilerContainer">
<button type="button" class="button bbCodeSpoilerButton ToggleTrigger Tooltip JsOnly" data-target="> .SpoilerTarget"><span>Spoiler: <span class="SpoilerTitle">Mediainfo</span></span></button>
<div class="SpoilerTarget bbCodeSpoilerText"><b>General</b><br>
Complete name : Melanie Martinez - Mad Hatter [Master ProRes APCN 800p].mov<br>
Format : MPEG-4<br>
Format profile : QuickTime<br>
Codec ID : qt 0000.00 (qt )<br>
File size : 2.13 GiB<br>
Duration : 3 min 24 s<br>
Overall bit rate mode : Variable<br>
Overall bit rate : 89.5 Mb/s<br>
Encoded date : UTC 2017-09-24 23:55:01<br>
Tagged date : UTC 2017-09-24 23:55:48<br>
Writing library : Apple QuickTime<br>
<br>
<b>Video</b><br>
ID : 1<br>
Format : ProRes<br>
Format version : Version 0<br>
Format profile : 422<br>
Codec ID : apcn<br>
Duration : 3 min 24 s<br>
Bit rate mode : Variable<br>
Bit rate : 87.4 Mb/s<br>
Width : 1 920 pixels<br>
Height : 800 pixels<br>
Display aspect ratio : 2.40:1<br>
Frame rate mode : Constant<br>
Frame rate : 23.976 (24000/1001) FPS<br>
Color space : YUV<br>
Chroma subsampling : 4:2:2<br>
Scan type : Progressive<br>
Bits/(Pixel*Frame) : 2.372<br>
Stream size : 2.08 GiB (98%)<br>
Title : Core Media Video<br>
Writing library : Apple<br>
Encoded date : UTC 2017-09-24 23:55:01<br>
Tagged date : UTC 2017-09-24 23:55:48<br>
Color primaries : BT.709<br>
Transfer characteristics : BT.709<br>
Matrix coefficients : BT.709<br>
<br>
<b>Audio</b><br>
ID : 2<br>
Format : PCM<br>
Format settings : Little / Signed<br>
Codec ID : lpcm<br>
Duration : 3 min 24 s<br>
Bit rate mode : Constant<br>
Bit rate : 2 117 kb/s<br>
Channel(s) : 2 channels<br>
Channel layout : L R<br>
Sampling rate : 44.1 kHz<br>
Bit depth : 24 bits<br>
Stream size : 51.5 MiB (2%)<br>
Title : Core Media Audio<br>
Encoded date : UTC 2017-09-24 23:55:01<br>
Tagged date : UTC 2017-09-24 23:55:48<br>
<br>
<b>Other</b><br>
ID : 3<br>
Type : Time code<br>
Format : QuickTime TC<br>
Duration : 3 min 24 s<br>
Bit rate mode : Constant<br>
Frame rate : 23.976 (24000/1001) FPS<br>
Time code of first frame : 01:00:00:00<br>
Time code of last frame : 01:03:20:00<br>
Time code, stripped : No<br>
Title : Core Media Time Code<br>
Encoded date : UTC 2017-09-24 23:55:02<br>
Tagged date : UTC 2017-09-24 23:55:48</div>
</div><br>
<div class="bbCodeBlock bbCodeVfcHH HiddenContent">
<div class="attribution type">Hidden Content:</div>
<blockquote>You must reply before you can see the hidden data contained here.</blockquote>
</div></div>
<div class="messageTextEndMarker">&nbsp;</div>
</blockquote>
</article>]]></description>
                <author><![CDATA[von_3649]]></author>
                </item>

                
                <item>
                <title><![CDATA[【Requests】[REQ AUD] - Pitty - Admirável Chip Novo [Dolby Atmos]]]></title>
                <link><![CDATA[https://sharemania.us/threads/pitty-admir%C3%A1vel-chip-novo-dolby-atmos.221185/]]></link>
                <description><![CDATA[<article>
<blockquote class="messageText SelectQuoteContainer ugc baseHtml">
Olá a todos, bom dia.<br>
Então Pitty relançou esse álbum icônico e com a tecnologia dolby atmos, e alguém de bom coração poderia ripar e postar aqui?<br>
Agradeceria muito! ✨
<div class="messageTextEndMarker">&nbsp;</div>
</blockquote>
</article>]]></description>
                <author><![CDATA[mate45araujo]]></author>
                </item>

                </channel></rss>